<?xml version="1.0" encoding="UTF-8" standalone="no"?>
<!DOCTYPE svg PUBLIC "-//W3C//DTD SVG 1.1//EN"
 "http://www.w3.org/Graphics/SVG/1.1/DTD/svg11.dtd">
<!-- Generated by graphviz version 13.1.2 (20250808.2320)
 -->
<!-- Title: G Pages: 1 -->
<svg width="1083pt" height="254pt"
 viewBox="0.00 0.00 1083.00 254.00" xmlns="http://www.w3.org/2000/svg" xmlns:xlink="http://www.w3.org/1999/xlink">
<g id="graph0" class="graph" transform="scale(1 1) rotate(0) translate(4 249.68)">
<title>G</title>
<polygon fill="white" stroke="none" points="-4,4 -4,-249.68 1079.49,-249.68 1079.49,4 -4,4"/>
<!-- aws_vpc.vpc&#45;01 -->
<g id="node1" class="node">
<title>aws_vpc.vpc&#45;01</title>
<polygon fill="lightblue" stroke="blue" points="100.75,-171.5 97.75,-175.5 76.75,-175.5 73.75,-171.5 0,-171.5 0,-132 100.75,-132 100.75,-171.5"/>
<text xml:space="preserve" text-anchor="middle" x="50.38" y="-156.1" font-family="sans-serif" font-size="12.00">VPC</text>
<text xml:space="preserve" text-anchor="middle" x="50.38" y="-140.35" font-family="sans-serif" font-size="12.00">aws_vpc.vpc&#45;01</text>
</g>
<!-- aws_subnet.public_subnet -->
<g id="node2" class="node">
<title>aws_subnet.public_subnet</title>
<polygon fill="#eedd82" stroke="orange" points="324.92,-171.5 169.42,-171.5 169.42,-132 324.92,-132 324.92,-171.5"/>
<text xml:space="preserve" text-anchor="middle" x="247.17" y="-156.1" font-family="sans-serif" font-size="12.00">Public Subnet</text>
<text xml:space="preserve" text-anchor="middle" x="247.17" y="-140.35" font-family="sans-serif" font-size="12.00">aws_subnet.public_subnet</text>
</g>
<!-- aws_subnet.public_subnet&#45;&gt;aws_vpc.vpc&#45;01 -->
<g id="edge9" class="edge">
<title>aws_subnet.public_subnet&#45;&gt;aws_vpc.vpc&#45;01</title>
<path fill="none" stroke="orange" d="M169.18,-151.75C150.43,-151.75 130.62,-151.75 112.7,-151.75"/>
<polygon fill="orange" stroke="orange" points="112.74,-148.25 102.74,-151.75 112.74,-155.25 112.74,-148.25"/>
</g>
<!-- aws_subnet.private_subnet -->
<g id="node3" class="node">
<title>aws_subnet.private_subnet</title>
<polygon fill="lightgreen" stroke="darkgreen" points="327.17,-39.5 167.17,-39.5 167.17,0 327.17,0 327.17,-39.5"/>
<text xml:space="preserve" text-anchor="middle" x="247.17" y="-24.1" font-family="sans-serif" font-size="12.00">Private Subnet</text>
<text xml:space="preserve" text-anchor="middle" x="247.17" y="-8.35" font-family="sans-serif" font-size="12.00">aws_subnet.private_subnet</text>
</g>
<!-- aws_subnet.private_subnet&#45;&gt;aws_vpc.vpc&#45;01 -->
<g id="edge8" class="edge">
<title>aws_subnet.private_subnet&#45;&gt;aws_vpc.vpc&#45;01</title>
<path fill="none" stroke="green" d="M166.76,-34.86C156.58,-38.54 146.62,-43.1 137.75,-48.75 108.47,-67.4 84.05,-99.15 68.74,-122.48"/>
<polygon fill="green" stroke="green" points="65.97,-120.31 63.55,-130.63 71.87,-124.07 65.97,-120.31"/>
</g>
<!-- aws_route_table.public_rt -->
<g id="node4" class="node">
<title>aws_route_table.public_rt</title>
<polygon fill="white" stroke="orange" points="671.79,-235.5 518.54,-235.5 518.54,-231.5 514.54,-231.5 514.54,-227.5 518.54,-227.5 518.54,-204 514.54,-204 514.54,-200 518.54,-200 518.54,-196 671.79,-196 671.79,-235.5"/>
<polyline fill="none" stroke="orange" points="518.54,-231.5 522.54,-231.5 522.54,-227.5 518.54,-227.5"/>
<polyline fill="none" stroke="orange" points="518.54,-204 522.54,-204 522.54,-200 518.54,-200"/>
<text xml:space="preserve" text-anchor="middle" x="595.17" y="-220.1" font-family="sans-serif" font-size="12.00">Public RT</text>
<text xml:space="preserve" text-anchor="middle" x="595.17" y="-204.35" font-family="sans-serif" font-size="12.00">aws_route_table.public_rt</text>
</g>
<!-- aws_internet_gateway.igw -->
<g id="node7" class="node">
<title>aws_internet_gateway.igw</title>
<ellipse fill="lightcyan" stroke="blue" cx="247.17" cy="-217.75" rx="109.42" ry="27.93"/>
<text xml:space="preserve" text-anchor="middle" x="247.17" y="-222.1" font-family="sans-serif" font-size="12.00">Internet Gateway</text>
<text xml:space="preserve" text-anchor="middle" x="247.17" y="-206.35" font-family="sans-serif" font-size="12.00">aws_internet_gateway.igw</text>
</g>
<!-- aws_route_table.public_rt&#45;&gt;aws_internet_gateway.igw -->
<g id="edge4" class="edge">
<title>aws_route_table.public_rt&#45;&gt;aws_internet_gateway.igw</title>
<path fill="none" stroke="blue" d="M518.24,-216.19C474.32,-216.44 418.05,-216.77 368.26,-217.06"/>
<polygon fill="blue" stroke="blue" points="368.24,-213.56 358.26,-217.11 368.28,-220.56 368.24,-213.56"/>
<text xml:space="preserve" text-anchor="middle" x="418.1" y="-220.19" font-family="Times New Roman,serif" font-size="14.00">route → IGW</text>
</g>
<!-- aws_default_route_table.private_rt -->
<g id="node5" class="node">
<title>aws_default_route_table.private_rt</title>
<polygon fill="white" stroke="green" points="1049.24,-117.5 848.74,-117.5 848.74,-113.5 844.74,-113.5 844.74,-109.5 848.74,-109.5 848.74,-86 844.74,-86 844.74,-82 848.74,-82 848.74,-78 1049.24,-78 1049.24,-117.5"/>
<polyline fill="none" stroke="green" points="848.74,-113.5 852.74,-113.5 852.74,-109.5 848.74,-109.5"/>
<polyline fill="none" stroke="green" points="848.74,-86 852.74,-86 852.74,-82 848.74,-82"/>
<text xml:space="preserve" text-anchor="middle" x="948.99" y="-102.1" font-family="sans-serif" font-size="12.00">Private RT (default)</text>
<text xml:space="preserve" text-anchor="middle" x="948.99" y="-86.35" font-family="sans-serif" font-size="12.00">aws_default_route_table.private_rt</text>
</g>
<!-- aws_nat_gateway.nat_gw -->
<g id="node8" class="node">
<title>aws_nat_gateway.nat_gw</title>
<polygon fill="lightpink" stroke="red" points="710.74,-85.23 710.74,-110.27 643.04,-127.98 547.3,-127.98 479.6,-110.27 479.6,-85.23 547.3,-67.52 643.04,-67.52 710.74,-85.23"/>
<text xml:space="preserve" text-anchor="middle" x="595.17" y="-102.1" font-family="sans-serif" font-size="12.00">NAT Gateway</text>
<text xml:space="preserve" text-anchor="middle" x="595.17" y="-86.35" font-family="sans-serif" font-size="12.00">aws_nat_gateway.nat_gw</text>
</g>
<!-- aws_default_route_table.private_rt&#45;&gt;aws_nat_gateway.nat_gw -->
<g id="edge1" class="edge">
<title>aws_default_route_table.private_rt&#45;&gt;aws_nat_gateway.nat_gw</title>
<path fill="none" stroke="purple" stroke-width="2" d="M848.58,-97.75C809.9,-97.75 765.1,-97.75 724.06,-97.75"/>
<polygon fill="purple" stroke="purple" stroke-width="2" points="724.2,-94.25 714.2,-97.75 724.2,-101.25 724.2,-94.25"/>
<text xml:space="preserve" text-anchor="middle" x="766.62" y="-100.95" font-family="Times New Roman,serif" font-size="14.00">route → NAT</text>
</g>
<!-- aws_route_table_association.public_rt_assoc -->
<g id="node6" class="node">
<title>aws_route_table_association.public_rt_assoc</title>
<polygon fill="lightgrey" stroke="black" points="1069.49,-205.5 822.49,-205.5 822.49,-166 1075.49,-166 1075.49,-199.5 1069.49,-205.5"/>
<polyline fill="none" stroke="black" points="1069.49,-205.5 1069.49,-199.5"/>
<polyline fill="none" stroke="black" points="1075.49,-199.5 1069.49,-199.5"/>
<text xml:space="preserve" text-anchor="middle" x="948.99" y="-190.1" font-family="sans-serif" font-size="12.00">RT Association</text>
<text xml:space="preserve" text-anchor="middle" x="948.99" y="-174.35" font-family="sans-serif" font-size="12.00">aws_route_table_association.public_rt_assoc</text>
</g>
<!-- aws_route_table_association.public_rt_assoc&#45;&gt;aws_subnet.public_subnet -->
<g id="edge6" class="edge">
<title>aws_route_table_association.public_rt_assoc&#45;&gt;aws_subnet.public_subnet</title>
<path fill="none" stroke="orange" d="M822.07,-179.63C681.83,-172.82 458.78,-161.98 336.14,-156.02"/>
<polygon fill="orange" stroke="orange" points="336.62,-152.54 326.46,-155.55 336.28,-159.53 336.62,-152.54"/>
</g>
<!-- aws_route_table_association.public_rt_assoc&#45;&gt;aws_route_table.public_rt -->
<g id="edge5" class="edge">
<title>aws_route_table_association.public_rt_assoc&#45;&gt;aws_route_table.public_rt</title>
<path fill="none" stroke="orange" d="M822.47,-196.45C776.46,-200.38 725.43,-204.73 683.5,-208.3"/>
<polygon fill="orange" stroke="orange" points="683.38,-204.8 673.71,-209.14 683.97,-211.78 683.38,-204.8"/>
</g>
<!-- aws_internet_gateway.igw&#45;&gt;aws_vpc.vpc&#45;01 -->
<g id="edge7" class="edge">
<title>aws_internet_gateway.igw&#45;&gt;aws_vpc.vpc&#45;01</title>
<path fill="none" stroke="blue" d="M179.95,-195.31C157.87,-187.83 133.4,-179.54 111.79,-172.22"/>
<polygon fill="blue" stroke="blue" points="113.13,-168.98 102.54,-169.08 110.88,-175.61 113.13,-168.98"/>
</g>
<!-- aws_nat_gateway.nat_gw&#45;&gt;aws_subnet.public_subnet -->
<g id="edge3" class="edge">
<title>aws_nat_gateway.nat_gw&#45;&gt;aws_subnet.public_subnet</title>
<path fill="none" stroke="orange" d="M491.3,-113.81C442.06,-121.49 383.7,-130.6 336.5,-137.97"/>
<polygon fill="orange" stroke="orange" points="336.21,-134.47 326.87,-139.47 337.29,-141.38 336.21,-134.47"/>
<text xml:space="preserve" text-anchor="middle" x="418.1" y="-134.37" font-family="Times New Roman,serif" font-size="14.00">in public subnet</text>
</g>
<!-- aws_eip.nat_eip -->
<g id="node9" class="node">
<title>aws_eip.nat_eip</title>
<ellipse fill="mistyrose" stroke="red" cx="247.17" cy="-85.75" rx="71.77" ry="27.93"/>
<text xml:space="preserve" text-anchor="middle" x="247.17" y="-90.1" font-family="sans-serif" font-size="12.00">Elastic IP</text>
<text xml:space="preserve" text-anchor="middle" x="247.17" y="-74.35" font-family="sans-serif" font-size="12.00">aws_eip.nat_eip</text>
</g>
<!-- aws_nat_gateway.nat_gw&#45;&gt;aws_eip.nat_eip -->
<g id="edge2" class="edge">
<title>aws_nat_gateway.nat_gw&#45;&gt;aws_eip.nat_eip</title>
<path fill="none" stroke="red" d="M479.44,-93.77C430.67,-92.08 374.91,-90.15 330.36,-88.6"/>
<polygon fill="red" stroke="red" points="330.62,-85.11 320.5,-88.26 330.38,-92.1 330.62,-85.11"/>
<text xml:space="preserve" text-anchor="middle" x="418.1" y="-96.02" font-family="Times New Roman,serif" font-size="14.00">uses EIP</text>
</g>
</g>
</svg>
