<?xml version="1.0" encoding="UTF-8" standalone="no"?>
<!DOCTYPE svg PUBLIC "-//W3C//DTD SVG 1.1//EN"
 "http://www.w3.org/Graphics/SVG/1.1/DTD/svg11.dtd">
<!-- Generated by graphviz version 13.1.2 (20250808.2320)
 -->
<!-- Title: G Pages: 1 -->
<svg width="877pt" height="206pt"
 viewBox="0.00 0.00 877.00 206.00" xmlns="http://www.w3.org/2000/svg" xmlns:xlink="http://www.w3.org/1999/xlink">
<g id="graph0" class="graph" transform="scale(1 1) rotate(0) translate(4 202)">
<title>G</title>
<polygon fill="white" stroke="none" points="-4,4 -4,-202 872.75,-202 872.75,4 -4,4"/>
<!-- aws_default_route_table.private_rt -->
<g id="node1" class="node">
<title>aws_default_route_table.private_rt</title>
<polygon fill="none" stroke="black" points="839.12,-193 608.62,-193 608.62,-157 839.12,-157 839.12,-193"/>
<text xml:space="preserve" text-anchor="middle" x="723.88" y="-170.32" font-family="sans-serif" font-size="14.00">aws_default_route_table.private_rt</text>
</g>
<!-- aws_nat_gateway.nat_gw -->
<g id="node4" class="node">
<title>aws_nat_gateway.nat_gw</title>
<polygon fill="none" stroke="black" points="543,-193 368.75,-193 368.75,-157 543,-157 543,-193"/>
<text xml:space="preserve" text-anchor="middle" x="455.88" y="-170.32" font-family="sans-serif" font-size="14.00">aws_nat_gateway.nat_gw</text>
</g>
<!-- aws_default_route_table.private_rt&#45;&gt;aws_nat_gateway.nat_gw -->
<g id="edge1" class="edge">
<title>aws_default_route_table.private_rt&#45;&gt;aws_nat_gateway.nat_gw</title>
<path fill="none" stroke="black" d="M608.14,-175C590.26,-175 571.93,-175 554.48,-175"/>
<polygon fill="black" stroke="black" points="554.67,-171.5 544.67,-175 554.67,-178.5 554.67,-171.5"/>
</g>
<!-- aws_eip.nat_eip -->
<g id="node2" class="node">
<title>aws_eip.nat_eip</title>
<polygon fill="none" stroke="black" points="299,-198 184,-198 184,-162 299,-162 299,-198"/>
<text xml:space="preserve" text-anchor="middle" x="241.5" y="-175.32" font-family="sans-serif" font-size="14.00">aws_eip.nat_eip</text>
</g>
<!-- aws_internet_gateway.igw -->
<g id="node3" class="node">
<title>aws_internet_gateway.igw</title>
<polygon fill="none" stroke="black" points="330.5,-90 152.5,-90 152.5,-54 330.5,-54 330.5,-90"/>
<text xml:space="preserve" text-anchor="middle" x="241.5" y="-67.33" font-family="sans-serif" font-size="14.00">aws_internet_gateway.igw</text>
</g>
<!-- aws_vpc.vpc&#45;01 -->
<g id="node9" class="node">
<title>aws_vpc.vpc&#45;01</title>
<polygon fill="none" stroke="black" points="114.25,-90 0,-90 0,-54 114.25,-54 114.25,-90"/>
<text xml:space="preserve" text-anchor="middle" x="57.13" y="-67.33" font-family="sans-serif" font-size="14.00">aws_vpc.vpc&#45;01</text>
</g>
<!-- aws_internet_gateway.igw&#45;&gt;aws_vpc.vpc&#45;01 -->
<g id="edge2" class="edge">
<title>aws_internet_gateway.igw&#45;&gt;aws_vpc.vpc&#45;01</title>
<path fill="none" stroke="black" d="M152.25,-72C143.44,-72 134.59,-72 126.03,-72"/>
<polygon fill="black" stroke="black" points="126.09,-68.5 116.09,-72 126.09,-75.5 126.09,-68.5"/>
</g>
<!-- aws_nat_gateway.nat_gw&#45;&gt;aws_eip.nat_eip -->
<g id="edge3" class="edge">
<title>aws_nat_gateway.nat_gw&#45;&gt;aws_eip.nat_eip</title>
<path fill="none" stroke="black" d="M368.49,-177.03C349.28,-177.49 329.17,-177.96 310.8,-178.39"/>
<polygon fill="black" stroke="black" points="310.74,-174.89 300.82,-178.63 310.9,-181.89 310.74,-174.89"/>
</g>
<!-- aws_subnet.public_subnet -->
<g id="node8" class="node">
<title>aws_subnet.public_subnet</title>
<polygon fill="none" stroke="black" points="329.38,-144 153.62,-144 153.62,-108 329.38,-108 329.38,-144"/>
<text xml:space="preserve" text-anchor="middle" x="241.5" y="-121.33" font-family="sans-serif" font-size="14.00">aws_subnet.public_subnet</text>
</g>
<!-- aws_nat_gateway.nat_gw&#45;&gt;aws_subnet.public_subnet -->
<g id="edge4" class="edge">
<title>aws_nat_gateway.nat_gw&#45;&gt;aws_subnet.public_subnet</title>
<path fill="none" stroke="black" d="M374.89,-156.55C361.34,-153.42 347.19,-150.15 333.39,-146.97"/>
<polygon fill="black" stroke="black" points="334.42,-143.62 323.89,-144.78 332.85,-150.44 334.42,-143.62"/>
</g>
<!-- aws_route_table.public_rt -->
<g id="node5" class="node">
<title>aws_route_table.public_rt</title>
<polygon fill="none" stroke="black" points="543,-92 368.75,-92 368.75,-56 543,-56 543,-92"/>
<text xml:space="preserve" text-anchor="middle" x="455.88" y="-69.33" font-family="sans-serif" font-size="14.00">aws_route_table.public_rt</text>
</g>
<!-- aws_route_table.public_rt&#45;&gt;aws_internet_gateway.igw -->
<g id="edge5" class="edge">
<title>aws_route_table.public_rt&#45;&gt;aws_internet_gateway.igw</title>
<path fill="none" stroke="black" d="M368.49,-73.19C359.87,-73.11 351.07,-73.02 342.32,-72.94"/>
<polygon fill="black" stroke="black" points="342.42,-69.44 332.39,-72.85 342.35,-76.44 342.42,-69.44"/>
</g>
<!-- aws_route_table_association.public_rt_assoc -->
<g id="node6" class="node">
<title>aws_route_table_association.public_rt_assoc</title>
<polygon fill="none" stroke="black" points="868.75,-118 579,-118 579,-82 868.75,-82 868.75,-118"/>
<text xml:space="preserve" text-anchor="middle" x="723.88" y="-95.33" font-family="sans-serif" font-size="14.00">aws_route_table_association.public_rt_assoc</text>
</g>
<!-- aws_route_table_association.public_rt_assoc&#45;&gt;aws_route_table.public_rt -->
<g id="edge6" class="edge">
<title>aws_route_table_association.public_rt_assoc&#45;&gt;aws_route_table.public_rt</title>
<path fill="none" stroke="black" d="M578.59,-85.9C570.55,-85.11 562.56,-84.33 554.75,-83.57"/>
<polygon fill="black" stroke="black" points="555.24,-80.1 544.95,-82.61 554.56,-87.06 555.24,-80.1"/>
</g>
<!-- aws_route_table_association.public_rt_assoc&#45;&gt;aws_subnet.public_subnet -->
<g id="edge7" class="edge">
<title>aws_route_table_association.public_rt_assoc&#45;&gt;aws_subnet.public_subnet</title>
<path fill="none" stroke="black" d="M578.75,-107.8C501.91,-111.96 409.37,-116.97 340.84,-120.68"/>
<polygon fill="black" stroke="black" points="340.94,-117.17 331.14,-121.2 341.32,-124.16 340.94,-117.17"/>
</g>
<!-- aws_subnet.private_subnet -->
<g id="node7" class="node">
<title>aws_subnet.private_subnet</title>
<polygon fill="none" stroke="black" points="332.75,-36 150.25,-36 150.25,0 332.75,0 332.75,-36"/>
<text xml:space="preserve" text-anchor="middle" x="241.5" y="-13.32" font-family="sans-serif" font-size="14.00">aws_subnet.private_subnet</text>
</g>
<!-- aws_subnet.private_subnet&#45;&gt;aws_vpc.vpc&#45;01 -->
<g id="edge8" class="edge">
<title>aws_subnet.private_subnet&#45;&gt;aws_vpc.vpc&#45;01</title>
<path fill="none" stroke="black" d="M178.25,-36.43C161.16,-41.49 142.55,-47 125.2,-52.14"/>
<polygon fill="black" stroke="black" points="124.63,-48.66 116.04,-54.85 126.62,-55.37 124.63,-48.66"/>
</g>
<!-- aws_subnet.public_subnet&#45;&gt;aws_vpc.vpc&#45;01 -->
<g id="edge9" class="edge">
<title>aws_subnet.public_subnet&#45;&gt;aws_vpc.vpc&#45;01</title>
<path fill="none" stroke="black" d="M178.25,-107.57C161.16,-102.51 142.55,-97 125.2,-91.86"/>
<polygon fill="black" stroke="black" points="126.62,-88.63 116.04,-89.15 124.63,-95.34 126.62,-88.63"/>
</g>
</g>
</svg>
